<svg width="29" height="27" viewBox="0 0 29 27" fill="none" xmlns="http://www.w3.org/2000/svg">
<g id="Iconsax/TwoTone/hambergermenu">
<g id="&#240;&#159;&#166;&#134; icon &#34;download&#34;">
<g id="Group">
<path id="Vector" d="M22.8179 19.7455H6.67959C6.04295 19.7455 5.52686 20.2257 5.52686 20.8182C5.52686 21.4106 6.04295 21.8909 6.67959 21.8909H22.8179C23.4546 21.8909 23.9707 21.4106 23.9707 20.8182C23.9707 20.2257 23.4546 19.7455 22.8179 19.7455Z" fill="#1B6FA8"/>
<path id="Vector_2" d="M5.52686 18.6727V20.8182C5.52686 21.4106 6.04295 21.8909 6.67959 21.8909C7.31623 21.8909 7.83233 21.4106 7.83233 20.8182V18.6727C7.83233 18.0803 7.31623 17.6 6.67959 17.6C6.04295 17.6 5.52686 18.0803 5.52686 18.6727Z" fill="#1B6FA8"/>
<path id="Vector_3" d="M21.665 18.6727V20.8182C21.665 21.4106 22.1811 21.8909 22.8178 21.8909C23.4544 21.8909 23.9705 21.4106 23.9705 20.8182V18.6727C23.9705 18.0803 23.4544 17.6 22.8178 17.6C22.1811 17.6 21.665 18.0803 21.665 18.6727Z" fill="#1B6FA8"/>
<path id="Vector_4" d="M14.7487 16.5273C14.5097 16.529 14.2761 16.4615 14.0801 16.3342L9.46918 13.3091C9.22066 13.145 9.05205 12.8961 9.00021 12.6167C8.94837 12.3373 9.01751 12.0501 9.19252 11.818C9.27988 11.702 9.39108 11.6032 9.51968 11.5274C9.64828 11.4516 9.79174 11.4002 9.94179 11.3763C10.0918 11.3524 10.2455 11.3563 10.3939 11.3879C10.5423 11.4196 10.6825 11.4782 10.8064 11.5605L14.7487 14.1244L18.668 11.3782C18.9126 11.2075 19.22 11.1342 19.5227 11.1744C19.8253 11.2147 20.0984 11.3651 20.2819 11.5927C20.4653 11.8203 20.5441 12.1064 20.5008 12.3881C20.4576 12.6697 20.2959 12.9238 20.0513 13.0945L15.4404 16.3127C15.2408 16.452 14.9981 16.5273 14.7487 16.5273Z" fill="#1B6FA8"/>
<path id="Vector_5" d="M14.7489 14.3818C14.4432 14.3818 14.15 14.2688 13.9338 14.0676C13.7176 13.8664 13.5962 13.5936 13.5962 13.3091V4.72727C13.5962 4.44276 13.7176 4.16991 13.9338 3.96874C14.15 3.76756 14.4432 3.65454 14.7489 3.65454C15.0547 3.65454 15.3479 3.76756 15.564 3.96874C15.7802 4.16991 15.9017 4.44276 15.9017 4.72727V13.3091C15.9017 13.5936 15.7802 13.8664 15.564 14.0676C15.3479 14.2688 15.0547 14.3818 14.7489 14.3818Z" fill="#1B6FA8"/>
</g>
</g>
</g>
</svg>
