<svg width="23" height="21" viewBox="0 0 23 21" fill="none" xmlns="http://www.w3.org/2000/svg">
<g id="Iconsax/Linear/eye">
<path id="Vector" d="M14.6559 10.6C14.6559 12.193 13.1671 13.4803 11.3246 13.4803C9.48205 13.4803 7.99316 12.193 7.99316 10.6C7.99316 9.00698 9.48205 7.71971 11.3246 7.71971C13.1671 7.71971 14.6559 9.00698 14.6559 10.6Z" stroke="#1B6FA8" stroke-width="1.5" stroke-linecap="round" stroke-linejoin="round"/>
<path id="Vector_2" d="M11.3242 17.2536C14.6091 17.2536 17.6706 15.5801 19.8016 12.6837C20.6391 11.5493 20.6391 9.64257 19.8016 8.50816C17.6706 5.61179 14.6091 3.93834 11.3242 3.93834C8.03938 3.93834 4.97785 5.61179 2.84688 8.50816C2.00937 9.64257 2.00937 11.5493 2.84688 12.6837C4.97785 15.5801 8.03938 17.2536 11.3242 17.2536Z" stroke="#1B6FA8" stroke-width="1.5" stroke-linecap="round" stroke-linejoin="round"/>
</g>
</svg>
