<svg width="47" height="44" viewBox="0 0 47 44" fill="none" xmlns="http://www.w3.org/2000/svg">
<path opacity="0.4" d="M34.5792 34.7241H33.1191C31.5821 34.7241 30.1219 35.2786 29.046 36.2802L25.7607 39.3029C24.2622 40.6801 21.8222 40.6801 20.3237 39.3029L17.0384 36.2802C15.9625 35.2786 14.4831 34.7241 12.9654 34.7241H11.5244C8.33519 34.7241 5.76074 32.3453 5.76074 29.4121V9.89868C5.76074 6.96542 8.33519 4.58661 11.5244 4.58661H34.5792C37.7684 4.58661 40.3429 6.96542 40.3429 9.89868V29.4121C40.3429 32.3274 37.7684 34.7241 34.5792 34.7241Z" fill="#FAFCFC"/>
<path d="M23.5897 27.7451C23.3015 27.8345 22.8212 27.8345 22.5138 27.7451C20.0162 26.9402 14.4062 23.6313 14.4062 17.9973C14.4063 15.5112 16.558 13.508 19.2093 13.508C20.7847 13.508 22.168 14.2055 23.0518 15.2966C23.9355 14.2055 25.3188 13.508 26.8942 13.508C29.5455 13.508 31.6973 15.5112 31.6973 17.9973C31.6781 23.6313 26.0873 26.9402 23.5897 27.7451Z" fill="#FAFCFC"/>
</svg>
