<svg width="132" height="46" viewBox="0 0 132 46" fill="none" xmlns="http://www.w3.org/2000/svg">
<path d="M14.42 27.58V39H10.54V27.58L0.04 10.34H3.44C3.78667 10.34 4.06 10.4267 4.26 10.6C4.46 10.76 4.63333 10.9733 4.78 11.24L11.34 22.38C11.58 22.8467 11.8 23.2867 12 23.7C12.2 24.1 12.3733 24.5067 12.52 24.92C12.6667 24.5067 12.8333 24.1 13.02 23.7C13.2067 23.2867 13.4133 22.8467 13.64 22.38L20.18 11.24C20.3 11.0133 20.4667 10.8067 20.68 10.62C20.8933 10.4333 21.1667 10.34 21.5 10.34H24.92L14.42 27.58ZM43.0816 18.74V39H40.9616C40.4549 39 40.1349 38.7533 40.0016 38.26L39.7216 36.08C38.8416 37.0533 37.8549 37.84 36.7616 38.44C35.6682 39.0267 34.4149 39.32 33.0016 39.32C31.8949 39.32 30.9149 39.14 30.0616 38.78C29.2216 38.4067 28.5149 37.8867 27.9416 37.22C27.3682 36.5533 26.9349 35.7467 26.6416 34.8C26.3616 33.8533 26.2216 32.8067 26.2216 31.66V18.74H29.7816V31.66C29.7816 33.1933 30.1282 34.38 30.8216 35.22C31.5282 36.06 32.6016 36.48 34.0416 36.48C35.0949 36.48 36.0749 36.2333 36.9816 35.74C37.9016 35.2333 38.7482 34.54 39.5216 33.66V18.74H43.0816ZM54.3063 9.54V26.88H55.2263C55.4929 26.88 55.7129 26.8467 55.8863 26.78C56.0729 26.7 56.2663 26.5467 56.4663 26.32L62.8663 19.46C63.0529 19.2333 63.2463 19.06 63.4463 18.94C63.6596 18.8067 63.9396 18.74 64.2863 18.74H67.5063L60.0463 26.68C59.6863 27.1333 59.2996 27.4867 58.8863 27.74C59.1263 27.9 59.3396 28.0867 59.5263 28.3C59.7263 28.5 59.9129 28.7333 60.0863 29L68.0062 39H64.8263C64.5196 39 64.2529 38.9533 64.0263 38.86C63.8129 38.7533 63.6263 38.5667 63.4663 38.3L56.8063 30C56.6063 29.72 56.4063 29.54 56.2063 29.46C56.0196 29.3667 55.7263 29.32 55.3263 29.32H54.3063V39H50.7263V9.54H54.3063ZM76.7988 18.74V39H73.2388V18.74H76.7988ZM77.5588 12.38C77.5588 12.7267 77.4854 13.0533 77.3388 13.36C77.2054 13.6533 77.0188 13.92 76.7788 14.16C76.5521 14.3867 76.2788 14.5667 75.9588 14.7C75.6521 14.8333 75.3254 14.9 74.9788 14.9C74.6321 14.9 74.3054 14.8333 73.9988 14.7C73.7054 14.5667 73.4454 14.3867 73.2188 14.16C72.9921 13.92 72.8121 13.6533 72.6788 13.36C72.5454 13.0533 72.4788 12.7267 72.4788 12.38C72.4788 12.0333 72.5454 11.7067 72.6788 11.4C72.8121 11.08 72.9921 10.8067 73.2188 10.58C73.4454 10.34 73.7054 10.1533 73.9988 10.02C74.3054 9.88666 74.6321 9.82 74.9788 9.82C75.3254 9.82 75.6521 9.88666 75.9588 10.02C76.2788 10.1533 76.5521 10.34 76.7788 10.58C77.0188 10.8067 77.2054 11.08 77.3388 11.4C77.4854 11.7067 77.5588 12.0333 77.5588 12.38Z" fill="#1B6FA8"/>
<mask id="path-2-outside-1_1_2936" maskUnits="userSpaceOnUse" x="94.1797" y="4" width="38" height="39" fill="black">
<rect fill="white" x="94.1797" y="4" width="38" height="39"/>
<path d="M98.2997 5.36H127.98V9.08H98.2997V5.36ZM101.14 15.92H109.46V19.04H101.14V15.92ZM100.26 20.52H109.5V23.68H100.26V20.52ZM116.7 20.52H126.02V23.68H116.7V20.52ZM116.7 15.92H125.1V19.04H116.7V15.92ZM100.1 30.96H124.1V34.56H100.1V30.96ZM98.6597 36.6H124.42V40.44H98.6597V36.6ZM110.7 6.76H115.42V24.08H110.7V6.76ZM99.2197 25.28H126.86V41.72H122.06V29.08H99.2197V25.28ZM95.5397 10.72H130.86V19.92H126.42V14.44H99.8197V19.92H95.5397V10.72Z"/>
</mask>
<path d="M98.2997 5.36H127.98V9.08H98.2997V5.36ZM101.14 15.92H109.46V19.04H101.14V15.92ZM100.26 20.52H109.5V23.68H100.26V20.52ZM116.7 20.52H126.02V23.68H116.7V20.52ZM116.7 15.92H125.1V19.04H116.7V15.92ZM100.1 30.96H124.1V34.56H100.1V30.96ZM98.6597 36.6H124.42V40.44H98.6597V36.6ZM110.7 6.76H115.42V24.08H110.7V6.76ZM99.2197 25.28H126.86V41.72H122.06V29.08H99.2197V25.28ZM95.5397 10.72H130.86V19.92H126.42V14.44H99.8197V19.92H95.5397V10.72Z" fill="#FAFCFC"/>
<path d="M98.2997 5.36V4.36H97.2997V5.36H98.2997ZM127.98 5.36H128.98V4.36H127.98V5.36ZM127.98 9.08V10.08H128.98V9.08H127.98ZM98.2997 9.08H97.2997V10.08H98.2997V9.08ZM101.14 15.92V14.92H100.14V15.92H101.14ZM109.46 15.92H110.46V14.92H109.46V15.92ZM109.46 19.04V20.04H110.46V19.04H109.46ZM101.14 19.04H100.14V20.04H101.14V19.04ZM100.26 20.52V19.52H99.2597V20.52H100.26ZM109.5 20.52H110.5V19.52H109.5V20.52ZM109.5 23.68V24.68H110.5V23.68H109.5ZM100.26 23.68H99.2597V24.68H100.26V23.68ZM116.7 20.52V19.52H115.7V20.52H116.7ZM126.02 20.52H127.02V19.52H126.02V20.52ZM126.02 23.68V24.68H127.02V23.68H126.02ZM116.7 23.68H115.7V24.68H116.7V23.68ZM116.7 15.92V14.92H115.7V15.92H116.7ZM125.1 15.92H126.1V14.92H125.1V15.92ZM125.1 19.04V20.04H126.1V19.04H125.1ZM116.7 19.04H115.7V20.04H116.7V19.04ZM100.1 30.96V29.96H99.0997V30.96H100.1ZM124.1 30.96H125.1V29.96H124.1V30.96ZM124.1 34.56V35.56H125.1V34.56H124.1ZM100.1 34.56H99.0997V35.56H100.1V34.56ZM98.6597 36.6V35.6H97.6597V36.6H98.6597ZM124.42 36.6H125.42V35.6H124.42V36.6ZM124.42 40.44V41.44H125.42V40.44H124.42ZM98.6597 40.44H97.6597V41.44H98.6597V40.44ZM110.7 6.76V5.76H109.7V6.76H110.7ZM115.42 6.76H116.42V5.76H115.42V6.76ZM115.42 24.08V25.08H116.42V24.08H115.42ZM110.7 24.08H109.7V25.08H110.7V24.08ZM99.2197 25.28V24.28H98.2197V25.28H99.2197ZM126.86 25.28H127.86V24.28H126.86V25.28ZM126.86 41.72V42.72H127.86V41.72H126.86ZM122.06 41.72H121.06V42.72H122.06V41.72ZM122.06 29.08H123.06V28.08H122.06V29.08ZM99.2197 29.08H98.2197V30.08H99.2197V29.08ZM95.5397 10.72V9.72H94.5397V10.72H95.5397ZM130.86 10.72H131.86V9.72H130.86V10.72ZM130.86 19.92V20.92H131.86V19.92H130.86ZM126.42 19.92H125.42V20.92H126.42V19.92ZM126.42 14.44H127.42V13.44H126.42V14.44ZM99.8197 14.44V13.44H98.8197V14.44H99.8197ZM99.8197 19.92V20.92H100.82V19.92H99.8197ZM95.5397 19.92H94.5397V20.92H95.5397V19.92ZM98.2997 6.36H127.98V4.36H98.2997V6.36ZM126.98 5.36V9.08H128.98V5.36H126.98ZM127.98 8.08H98.2997V10.08H127.98V8.08ZM99.2997 9.08V5.36H97.2997V9.08H99.2997ZM101.14 16.92H109.46V14.92H101.14V16.92ZM108.46 15.92V19.04H110.46V15.92H108.46ZM109.46 18.04H101.14V20.04H109.46V18.04ZM102.14 19.04V15.92H100.14V19.04H102.14ZM100.26 21.52H109.5V19.52H100.26V21.52ZM108.5 20.52V23.68H110.5V20.52H108.5ZM109.5 22.68H100.26V24.68H109.5V22.68ZM101.26 23.68V20.52H99.2597V23.68H101.26ZM116.7 21.52H126.02V19.52H116.7V21.52ZM125.02 20.52V23.68H127.02V20.52H125.02ZM126.02 22.68H116.7V24.68H126.02V22.68ZM117.7 23.68V20.52H115.7V23.68H117.7ZM116.7 16.92H125.1V14.92H116.7V16.92ZM124.1 15.92V19.04H126.1V15.92H124.1ZM125.1 18.04H116.7V20.04H125.1V18.04ZM117.7 19.04V15.92H115.7V19.04H117.7ZM100.1 31.96H124.1V29.96H100.1V31.96ZM123.1 30.96V34.56H125.1V30.96H123.1ZM124.1 33.56H100.1V35.56H124.1V33.56ZM101.1 34.56V30.96H99.0997V34.56H101.1ZM98.6597 37.6H124.42V35.6H98.6597V37.6ZM123.42 36.6V40.44H125.42V36.6H123.42ZM124.42 39.44H98.6597V41.44H124.42V39.44ZM99.6597 40.44V36.6H97.6597V40.44H99.6597ZM110.7 7.76H115.42V5.76H110.7V7.76ZM114.42 6.76V24.08H116.42V6.76H114.42ZM115.42 23.08H110.7V25.08H115.42V23.08ZM111.7 24.08V6.76H109.7V24.08H111.7ZM99.2197 26.28H126.86V24.28H99.2197V26.28ZM125.86 25.28V41.72H127.86V25.28H125.86ZM126.86 40.72H122.06V42.72H126.86V40.72ZM123.06 41.72V29.08H121.06V41.72H123.06ZM122.06 28.08H99.2197V30.08H122.06V28.08ZM100.22 29.08V25.28H98.2197V29.08H100.22ZM95.5397 11.72H130.86V9.72H95.5397V11.72ZM129.86 10.72V19.92H131.86V10.72H129.86ZM130.86 18.92H126.42V20.92H130.86V18.92ZM127.42 19.92V14.44H125.42V19.92H127.42ZM126.42 13.44H99.8197V15.44H126.42V13.44ZM98.8197 14.44V19.92H100.82V14.44H98.8197ZM99.8197 18.92H95.5397V20.92H99.8197V18.92ZM96.5397 19.92V10.72H94.5397V19.92H96.5397Z" fill="#1F1F1F" mask="url(#path-2-outside-1_1_2936)"/>
</svg>
