<svg width="23" height="21" viewBox="0 0 23 21" fill="none" xmlns="http://www.w3.org/2000/svg">
<g id="Iconsax/Bulk/message">
<path id="Vector" d="M2.28223 11.3804V6.5692C2.28223 4.34866 4.36667 2.55452 6.935 2.55452H16.2406C18.8089 2.55452 20.8933 4.34866 20.8933 6.5692V12.1849C20.8933 14.3974 18.8089 16.1916 16.2406 16.1916H14.8447C14.5563 16.1916 14.2771 16.3122 14.1003 16.5134L12.7044 18.1144C12.0903 18.8224 11.0853 18.8224 10.4711 18.1144L9.07528 16.5134C8.92639 16.3364 8.59139 16.1916 8.33084 16.1916H6.935C4.36667 16.1916 2.28223 14.3974 2.28223 12.1849V11.3804Z" fill="#1B6FA8"/>
<path id="Vector_2" d="M11.5873 10.6C11.0662 10.6 10.6568 10.2379 10.6568 9.79544C10.6568 9.35294 11.0755 8.99089 11.5873 8.99089C12.0992 8.99089 12.5179 9.35294 12.5179 9.79544C12.5179 10.2379 12.1085 10.6 11.5873 10.6ZM15.3096 10.6C14.7885 10.6 14.379 10.2379 14.379 9.79544C14.379 9.35294 14.7978 8.99089 15.3096 8.99089C15.8214 8.99089 16.2401 9.35294 16.2401 9.79544C16.2401 10.2379 15.8307 10.6 15.3096 10.6ZM7.86513 10.6C7.34401 10.6 6.93457 10.2379 6.93457 9.79544C6.93457 9.35294 7.35332 8.99089 7.86513 8.99089C8.37693 8.99089 8.79568 9.35294 8.79568 9.79544C8.79568 10.2379 8.38624 10.6 7.86513 10.6Z" fill="#FAFCFC"/>
</g>
</svg>
