<svg width="24" height="30" viewBox="0 0 24 30" fill="none" xmlns="http://www.w3.org/2000/svg">
<path d="M16 8H8C4 8 2 10 2 14V27C2 27.55 2.45 28 3 28H16C20 28 22 26 22 22V14C22 10 20 8 16 8Z" stroke="#1F1F1F" stroke-width="1.5" stroke-linecap="round" stroke-linejoin="round"/>
<path d="M7 15.5H17M7 20.5H14" stroke="#1F1F1F" stroke-width="1.5" stroke-miterlimit="10" stroke-linecap="round" stroke-linejoin="round"/>
<circle cx="16" cy="6" r="5.5" fill="#E40066" stroke="#1F1F1F"/>
<path d="M17.7013 8.36625C17.7738 8.36625 17.8313 8.3875 17.8737 8.43C17.9163 8.4725 17.9375 8.5275 17.9375 8.595V9H14.3525V8.77125C14.3525 8.72375 14.3625 8.675 14.3825 8.625C14.4025 8.575 14.4338 8.52875 14.4763 8.48625L16.1975 6.7575C16.34 6.6125 16.47 6.47375 16.5875 6.34125C16.705 6.20625 16.805 6.07125 16.8875 5.93625C16.97 5.80125 17.0338 5.665 17.0788 5.5275C17.1238 5.3875 17.1463 5.23875 17.1463 5.08125C17.1463 4.92375 17.1213 4.78625 17.0713 4.66875C17.0213 4.54875 16.9525 4.45 16.865 4.3725C16.78 4.295 16.6788 4.2375 16.5613 4.2C16.4438 4.16 16.3175 4.14 16.1825 4.14C16.045 4.14 15.9188 4.16 15.8038 4.2C15.6888 4.24 15.5863 4.29625 15.4963 4.36875C15.4088 4.43875 15.335 4.5225 15.275 4.62C15.215 4.7175 15.1725 4.825 15.1475 4.9425C15.1175 5.03 15.0763 5.08875 15.0238 5.11875C14.9738 5.14625 14.9025 5.15375 14.81 5.14125L14.4613 5.08125C14.4963 4.83625 14.5638 4.62 14.6638 4.4325C14.7663 4.2425 14.8938 4.08375 15.0463 3.95625C15.2013 3.82875 15.3775 3.7325 15.575 3.6675C15.7725 3.6 15.9863 3.56625 16.2163 3.56625C16.4438 3.56625 16.6563 3.6 16.8538 3.6675C17.0513 3.735 17.2225 3.83375 17.3675 3.96375C17.5125 4.09125 17.6263 4.2475 17.7088 4.4325C17.7913 4.6175 17.8325 4.8275 17.8325 5.0625C17.8325 5.2625 17.8025 5.44875 17.7425 5.62125C17.6825 5.79125 17.6013 5.95375 17.4988 6.10875C17.3963 6.26375 17.2775 6.415 17.1425 6.5625C17.01 6.71 16.8688 6.85875 16.7188 7.00875L15.3013 8.45625C15.4013 8.42875 15.5025 8.4075 15.605 8.3925C15.7075 8.375 15.8063 8.36625 15.9013 8.36625H17.7013Z" fill="#FAFCFC"/>
</svg>
