<svg width="24" height="24" viewBox="0 0 24 24" fill="none" xmlns="http://www.w3.org/2000/svg">
<path opacity="0.4" d="M12 22.012C17.523 22.012 22 17.535 22 12.012C22 6.48899 17.523 2.01199 12 2.01199C6.477 2.01199 2 6.48899 2 12.012C2 17.535 6.477 22.012 12 22.012Z" fill="#FAFCFC"/>
<path d="M12.0002 6.94101C9.93024 6.94101 8.25024 8.62101 8.25024 10.691C8.25024 12.721 9.84024 14.371 11.9502 14.431H12.1302C13.101 14.3991 14.0213 13.9911 14.6967 13.2932C15.3722 12.5954 15.75 11.6622 15.7502 10.691C15.7502 8.62101 14.0702 6.94101 12.0002 6.94101ZM18.7792 19.358C16.9337 21.0638 14.5124 22.0102 11.9992 22.008C9.37924 22.008 6.99924 20.998 5.21924 19.358C5.45924 18.448 6.10924 17.618 7.05924 16.978C9.78924 15.158 14.2292 15.158 16.9392 16.978C17.8992 17.618 18.5392 18.448 18.7792 19.358Z" fill="#FAFCFC"/>
</svg>
