<svg width="8" height="9" viewBox="0 0 8 9" fill="none" xmlns="http://www.w3.org/2000/svg">
<path d="M7.4232 4.22397L6.3629 5.2545C6.21731 5.39579 6.11843 5.67835 6.14864 5.88058L6.31346 7.08841C6.42058 7.86132 5.94537 8.19652 5.25865 7.83638L4.09396 7.22139C3.89893 7.11889 3.58029 7.12443 3.39076 7.23801L2.37166 7.83915C1.56682 8.31287 1.08611 7.9555 1.30037 7.04132L1.59978 5.76423C1.65472 5.53153 1.55308 5.21295 1.38003 5.05505L0.415865 4.17688C-0.273606 3.54803 -0.081323 2.97735 0.847128 2.90533L2.0228 2.81668C2.24255 2.80006 2.509 2.62553 2.61064 2.42884L3.22045 1.24871C3.58029 0.558921 4.15989 0.561691 4.50874 1.25703L5.05263 2.34297C5.14602 2.5258 5.38226 2.7031 5.58278 2.73357L7.03864 2.97181C7.82425 3.10479 7.9973 3.66715 7.4232 4.22397Z" fill="#1B6FA8"/>
</svg>
